Coordinates
version=1
nRows=19
nColumns=36
inDegrees=yes

Units are S.I. units (second, meters, Newtons, ...)
If the header above contains a line with 'inDegrees', this indicates whether rotational values are in degrees (yes) or radians (no).

endheader
time	pelvis_tilt	pelvis_list	pelvis_rotation	pelvis_tx	pelvis_ty	pelvis_tz	hip_flexion_r	hip_adduction_r	hip_rotation_r	knee_angle_r	knee_angle_r_beta	ankle_angle_r	subtalar_angle_r	mtp_angle_r	hip_flexion_l	hip_adduction_l	hip_rotation_l	knee_angle_l	knee_angle_l_beta	ankle_angle_l	subtalar_angle_l	mtp_angle_l	lumbar_extension	lumbar_bending	lumbar_rotation	arm_flex_r	arm_add_r	arm_rot_r	elbow_flex_r	pro_sup_r	arm_flex_l	arm_add_l	arm_rot_l	elbow_flex_l	pro_sup_l
      3.40000000	     -1.82437972	      2.96296889	      7.95808894	      0.39861223	      0.89619849	      0.19828904	     13.73611629	      1.59774205	     -9.03359407	     29.07871171	      0.50751926	     -6.63602249	    -32.09206624	     -7.49999987	     25.16066362	      6.76379920	      9.17853818	     40.64719148	      0.70942732	    -12.16689462	    -17.06076004	     -7.49999987	    -25.08729337	     -4.15569754	     -7.45511972	     60.58900751	      4.11338178	     30.25297179	    115.01437820	     92.50986740	    100.01880396	      9.47321123	     90.28116171	    101.47501137	     88.51242442
      3.41666670	      1.40382485	      2.69584504	      7.58898411	      0.40590299	      0.90540088	      0.19438720	      7.45044190	      2.47427769	     -9.28275645	     24.85039768	      0.43372126	     -7.85932109	    -31.00922646	     -7.49999987	     18.41360871	      6.35710874	     11.12945796	     38.44800293	      0.67104424	     -8.64458719	    -17.85828055	     -7.49999987	    -28.56648768	     -3.38333566	     -4.73712142	     64.10761756	      2.58747667	     37.23971214	    125.03265392	     93.49272254	    100.67675186	     10.97918670	     89.81403040	    100.44337031	     89.35501141
      3.43333330	      3.57458130	      2.47782230	      6.95489586	      0.40701391	      0.90642328	      0.19056719	      2.95859254	      3.03516421	     -8.91636117	     21.39920160	      0.37348653	     -8.08455674	    -29.79097107	     -7.49999987	     13.16858682	      5.96664895	     12.12371357	     35.62888953	      0.62184143	     -6.74935380	    -19.52874782	     -7.49999987	    -30.53991641	     -3.15028757	     -4.29014582	     63.67275943	      2.89025434	     33.31753974	    122.98738556	     93.56822206	    101.18792249	     11.28258892	     89.16808607	     99.98029317	     89.97777968
      3.45000000	      5.74605213	      2.56979377	      6.64487220	      0.41463884	      0.91241426	      0.18830706	     -1.83075847	      3.26794939	     -8.43718175	     17.92486286	      0.31284787	     -7.36838803	    -27.63725453	     -7.49999987	      7.77421469	      5.78568318	     12.99056319	     31.99658404	      0.55844574	     -4.65489268	    -20.15112122	     -7.49999987	    -32.64439966	     -3.13216956	     -1.99461805	     67.48749617	      1.77154683	     42.41169138	    131.93506362	     94.34531388	    100.92203482	     13.09999498	     88.52998354	    100.22436545	     90.18321062
      3.46666670	      8.07000409	      2.86081932	      6.06875447	      0.41753037	      0.91685469	      0.18549385	     -6.56287266	      3.14792723	     -8.22448056	     15.01183213	      0.26200590	     -5.14204792	    -24.30464847	     -7.49999987	      2.04687540	      5.63039589	     13.44703818	     27.61924609	      0.48204678	     -2.54009909	    -19.76708825	     -7.49999987	    -34.61352303	     -3.40430953	     -1.71489703	     67.00459663	      1.31665933	     40.06245204	    128.73021934	     95.07581608	    100.35708233	     13.61473428	     88.16699651	    100.23053533	     90.43326450
      3.48333330	      9.74372325	      3.12014259	      5.41778034	      0.42159782	      0.91624113	      0.18263444	    -10.03509713	      2.96723613	     -7.71777309	     12.82888079	      0.22390621	     -4.02694413	    -22.49884518	     -7.49999987	     -2.56291531	      5.48435587	     13.55016164	     23.34752796	      0.40749124	     -1.72110592	    -19.39206045	     -7.49999987	    -35.50741363	     -3.84908923	     -2.75498921	     66.71512509	      2.77753576	     39.09860323	    120.83960964	     94.86287683	     99.45201632	     12.84001670	     88.06864754	    100.49106189	     90.74409350
      3.50000000	     11.24160361	      3.24158855	      4.61095248	      0.42383809	      0.91677575	      0.18141160	    -12.81926089	      2.79757585	     -7.25881973	     11.06196586	      0.19306773	     -3.59125646	    -21.64206868	     -7.49999987	     -6.89603464	      5.18418134	     13.05164774	     18.86107494	      0.32918786	     -0.76091675	    -17.99797682	     -7.49999987	    -36.25555765	     -4.34961078	     -3.64997612	     64.77019744	      3.72491029	     34.38606822	    114.05706462	     93.42798728	     98.93905080	     12.26499138	     88.10865970	     99.94752295	     90.05593110
      3.51666670	     12.83410329	      3.21492415	      3.83290559	      0.42686866	      0.91609775	      0.17852476	    -15.43215927	      2.69759105	     -6.77163743	      9.70383943	      0.16936395	     -3.31081809	    -20.92631599	     -7.49999987	    -11.20949478	      4.84164612	     12.34214620	     14.26316417	      0.24893918	      0.34903623	    -16.13624863	     -7.49999987	    -37.46365800	     -4.59853544	     -3.19456366	     63.81836784	      4.62964110	     31.12351290	    113.89965183	     91.68163189	     98.76995317	     12.77967685	     87.89881029	     99.35064033	     89.23369792
      3.53333330	     14.08996348	      3.10951266	      3.18913147	      0.42772094	      0.91542033	      0.17791950	    -17.40746725	      2.70403805	     -6.14687697	      8.65028523	      0.15097596	     -3.53478331	    -21.23255444	     -7.49999987	    -14.85140298	      4.48986161	     11.49251561	      9.89468519	      0.17269483	      1.12365739	    -14.16406111	     -7.49999987	    -38.29575691	     -4.84519241	     -3.74762279	     63.48442292	      5.46266712	     29.08487483	    111.19428690	     91.22192013	     98.50614856	     12.09651901	     87.54292360	     99.08789264	     89.39320245
      3.55000000	     15.42211261	      2.96255435	      2.74545310	      0.42758964	      0.91552981	      0.17710847	    -19.15989336	      2.79982187	     -5.24710175	      8.12615150	      0.14182810	     -3.88521435	    -22.15834430	     -7.49999987	    -18.26207992	      4.17296477	     10.73658691	      6.08241708	      0.10615820	      1.08889381	    -13.22943329	     -7.49999987	    -39.87563146	     -4.64471823	     -2.63924307	     64.09040595	      5.23769931	     29.71276840	    118.54231499	     90.94165191	     99.22445075	     12.35874511	     86.02246324	    100.33989955	     89.24042769
      3.56666670	     16.28381869	      2.73002338	      2.46234484	      0.42808747	      0.91581053	      0.17567660	    -20.27527337	      2.95382077	     -5.09656857	      7.89513044	      0.13779602	     -2.84956979	    -21.34534954	     -7.49999987	    -20.60758447	      3.82277318	      9.16938036	      3.33768808	      0.05825365	      2.19896403	    -10.29668037	     -7.49999987	    -41.11700223	     -4.55925912	     -1.28366684	     63.91738629	      5.29066111	     26.36444768	    122.20703412	     93.70535652	     99.57479874	     13.58164021	     85.43282642	     99.98891639	     94.36475749
      3.58333330	     16.83187272	      2.56238053	      2.31446537	      0.43023085	      0.91547675	      0.17335500	    -21.04537386	      3.09156878	     -4.82544652	      7.66911969	      0.13385139	     -2.75157652	    -21.77094169	     -7.49999987	    -22.14229945	      3.63828081	      8.26461448	      1.68653131	      0.02943552	      2.45477335	     -9.18954775	     -7.49999987	    -41.70737779	     -4.41598141	     -1.59999369	     62.84981889	      5.71803713	     24.94243273	    121.96583442	     91.77405675	     99.31952810	     13.19482431	     85.19319623	    100.27234915	     92.64103700
      3.60000000	     17.30224837	      2.55511893	      2.35277302	      0.42840217	      0.91797957	      0.17074857	    -21.84974855	      3.14452452	     -5.00836734	      7.00664000	      0.12228894	     -2.87380695	    -22.25781490	     -7.49999987	    -22.97137858	      3.66097726	      7.50257258	      1.00269339	      0.01750030	      2.66622068	     -7.94233461	     -7.49999987	    -42.99670040	     -4.22189293	      1.18118554	     68.76613844	      4.23849688	     37.83756818	    135.11069288	     97.75398753	     99.57037758	     15.44749557	     84.85035944	    100.47400313	     96.68177698
      3.61666670	     17.19576664	      2.47075078	      2.27087250	      0.42771257	      0.92178983	      0.17013814	    -21.94695981	      3.19839384	     -5.09981489	      6.60318435	      0.11524731	     -2.87936938	    -22.28502045	     -7.49999987	    -22.91038711	      3.68323099	      6.77774897	      0.67427792	      0.01176837	      2.65074697	     -7.07740144	     -7.49999987	    -43.09626525	     -4.15025430	      0.80733695	     67.41994284	      3.08921888	     37.52484878	    131.84787747	     98.57002924	     98.25301757	     14.82218983	     85.21255242	    100.97014943	     95.61764196
      3.63333330	     17.07637597	      2.44059098	      2.22542950	      0.42850832	      0.92219938	      0.16836347	    -22.06541043	      3.17382238	     -5.31094415	      6.18455537	      0.10794085	     -2.94645161	    -22.30555267	     -7.49999987	    -22.78723017	      3.76781270	      5.97193701	      0.52410507	      0.00914736	      2.81615318	     -6.11138833	     -7.49999987	    -43.24001024	     -4.11389394	      1.73584519	     70.24846219	      2.73759317	     47.32857824	    135.80900572	    101.17072781	     97.40345007	     15.21954395	     85.51919577	    102.06720770	     95.96943585
      3.65000000	     16.81399447	      2.38914304	      2.08068870	      0.42786490	      0.92199309	      0.16729736	    -21.98840401	      3.08840965	     -5.42957771	      5.88206795	      0.10266145	     -2.83229026	    -21.95215399	     -7.49999987	    -22.47573383	      3.88838275	      5.36219829	      0.46509186	      0.00811738	      2.74787219	     -5.72210147	     -7.49999987	    -43.04539789	     -4.18660150	      1.58365852	     71.16852660	      2.28999614	     50.23799958	    132.88168769	    100.59776311	     96.77410342	     14.79435331	     85.47364061	    102.05812778	     94.31561317
      3.66666670	     16.62525002	      2.22593241	      1.69556690	      0.42735443	      0.91907148	      0.16591955	    -21.85458002	      3.01169185	     -5.44946275	      5.80611891	      0.10133589	     -1.71519314	    -21.04256274	     -7.49999987	    -22.26913784	      3.95077177	      4.53718383	      0.43023616	      0.00750904	      3.27784481	     -4.51377382	     -7.49999987	    -42.66530193	     -4.27842565	      0.79638485	     71.80010252	      3.25515692	     53.27372400	    130.05128565	     99.41116190	     96.55725928	     13.81345830	     85.07818447	    103.04170554	     92.44584336
      3.68333330	     16.29818764	      2.01641631	      1.42005658	      0.42610502	      0.91876959	      0.16534890	    -21.60150238	      3.03534853	     -5.28602058	      5.39370559	      0.09413792	     -1.62845402	    -20.99005703	     -7.49999987	    -21.84861602	      3.93633105	      4.14452391	      0.42998048	      0.00750458	      3.42647048	     -4.36549111	     -7.49999987	    -42.38544426	     -4.39290864	      0.82121949	     71.75612567	      3.52164109	     51.83321410	    128.53017621	     99.56318261	     96.85728281	     13.55894985	     84.82238856	    103.32754198	     92.07145062
      3.70000000	     16.20448547	      1.88862885	      1.17419830	      0.42528651	      0.91585219	      0.16386343	    -21.65580600	      3.00348419	     -5.18808574	      4.85500785	      0.08473587	     -1.61865160	    -20.70726200	     -7.49999987	    -21.66621587	      3.96358626	      3.95575917	      0.43684860	      0.00762445	      2.98279446	     -4.49877947	     -7.49999987	    -42.57343612	     -4.45811124	      1.87424002	     73.38513517	      3.96050474	     54.66551463	    134.02245935	    100.71013121	     97.48825202	     14.36127019	     84.46268267	    103.71456174	     92.40434613
